<svg width="63" height="63" viewBox="0 0 63 63" fill="none" xmlns="http://www.w3.org/2000/svg">
<path d="M17.37 48.984V46.11C17.37 38.1737 23.8037 31.74 31.74 31.74C39.6763 31.74 46.11 38.1737 46.11 46.11V48.984" stroke="black" stroke-width="4.311" stroke-linecap="round"/>
<path d="M31.74 31.74C36.5019 31.74 40.362 27.8799 40.362 23.118C40.362 18.3562 36.5019 14.496 31.74 14.496C26.9781 14.496 23.118 18.3562 23.118 23.118C23.118 27.8799 26.9781 31.74 31.74 31.74Z" stroke="black" stroke-width="4.311" stroke-linecap="round" stroke-linejoin="round"/>
<path d="M31.74 60.48C47.6127 60.48 60.48 47.6127 60.48 31.74C60.48 15.8673 47.6127 3 31.74 3C15.8673 3 3 15.8673 3 31.74C3 47.6127 15.8673 60.48 31.74 60.48Z" stroke="black" stroke-width="4.311"/>
</svg>
